<svg xmlns="http://www.w3.org/2000/svg" viewBox="0 0 512 512" width="512" height="512">
  <path d="M 300 120 L 148 120 C 106 120 72 154 72 196 L 72 372 C 72 414 106 448 148 448 L 364 448 C 406 448 440 414 440 372 L 440 216" fill="none" stroke="#A366FF" stroke-width="32.0" stroke-linecap="round" stroke-linejoin="round"/><rect x="330.0" y="71.9" width="128.0" height="78.1" rx="14.1" fill="none" stroke="#A366FF" stroke-width="26.2" stroke-linecap="round" stroke-linejoin="round"/><path d="M 371.0 175.6 L 417.0 175.6" fill="none" stroke="#A366FF" stroke-width="26.2" stroke-linecap="round" stroke-linejoin="round"/><path d="M 237.0 250.5 C 219.2 229.7 204.3 223.8 192.4 223.8 C 156.8 223.8 136.0 256.4 136.0 298.0 C 136.0 339.6 156.8 372.2 192.4 372.2 C 204.3 372.2 219.2 366.3 237.0 345.5 M 281.0 223.8 L 376.0 223.8 M 328.5 223.8 L 328.5 372.2" fill="none" stroke="#A366FF" stroke-width="32.0" stroke-linecap="round" stroke-linejoin="round"/>
</svg>
