<svg xmlns="http://www.w3.org/2000/svg" width="1280" height="720" viewBox="0 0 1280 720">
  <g transform="translate(-6.5,13.0)">
  <g transform="translate(138,152) scale(0.81250)"><rect x="72" y="72" width="96" height="96" rx="20" fill="none" stroke="#5C6BC0" stroke-width="21.8" stroke-linecap="round" stroke-linejoin="round"/><rect x="208" y="72" width="96" height="96" rx="20" fill="none" stroke="#5C6BC0" stroke-width="21.8" stroke-linecap="round" stroke-linejoin="round"/><rect x="344" y="72" width="96" height="96" rx="20" fill="none" stroke="#5C6BC0" stroke-width="21.8" stroke-linecap="round" stroke-linejoin="round"/><rect x="72" y="208" width="96" height="96" rx="20" fill="none" stroke="#5C6BC0" stroke-width="21.8" stroke-linecap="round" stroke-linejoin="round"/><rect x="208" y="208" width="96" height="96" rx="20" fill="none" stroke="#5C6BC0" stroke-width="21.8" stroke-linecap="round" stroke-linejoin="round"/><rect x="344" y="208" width="96" height="96" rx="20" fill="none" stroke="#5C6BC0" stroke-width="21.8" stroke-linecap="round" stroke-linejoin="round"/><rect x="72" y="344" width="96" height="96" rx="20" fill="none" stroke="#5C6BC0" stroke-width="21.8" stroke-linecap="round" stroke-linejoin="round"/><rect x="208" y="344" width="96" height="96" rx="20" fill="none" stroke="#5C6BC0" stroke-width="21.8" stroke-linecap="round" stroke-linejoin="round"/><path d="M 436 392 L 360 392 M 390 362 L 360 392 L 390 422" fill="none" stroke="#5C6BC0" stroke-width="21.8" stroke-linecap="round" stroke-linejoin="round"/></g>
  <path d="M 589.3 213.5 L 601.5 179.5 L 613.7 213.5 M 593.7 202.0 L 609.3 202.0 M 634.1 213.5 L 634.1 179.5 L 643.7 179.5 C 653.2 179.5 653.2 197.9 643.7 197.9 L 634.1 197.9 M 671.2 213.5 L 671.2 179.5 L 680.7 179.5 C 690.3 179.5 690.3 197.9 680.7 197.9 L 671.2 197.9" fill="none" stroke="#5C6BC0" stroke-width="9.0" stroke-linecap="round" stroke-linejoin="round"/>
  <path d="M 657.3 271.0 C 645.3 257.0 635.3 253.0 627.3 253.0 C 603.3 253.0 589.3 275.0 589.3 303.0 C 589.3 331.1 603.3 353.1 627.3 353.1 C 635.3 353.1 645.3 349.1 657.3 335.1 M 718.4 283.0 C 734.4 283.0 744.4 298.0 744.4 318.1 C 744.4 338.1 734.4 353.1 718.4 353.1 C 702.4 353.1 692.4 338.1 692.4 318.1 C 692.4 298.0 702.4 283.0 718.4 283.0 Z M 780.4 283.0 L 780.4 327.1 C 780.4 343.1 790.5 353.1 804.5 353.1 C 818.5 353.1 828.5 343.1 828.5 327.1 M 828.5 283.0 L 828.5 353.1 M 910.6 293.0 C 904.6 286.0 896.6 283.0 889.6 283.0 C 874.5 283.0 864.5 298.0 864.5 318.1 C 864.5 338.1 874.5 353.1 889.6 353.1 C 896.6 353.1 904.6 350.1 910.6 343.1 M 946.6 253.0 L 946.6 353.1 M 946.6 309.1 C 946.6 293.0 956.6 283.0 970.6 283.0 C 984.6 283.0 994.7 293.0 994.7 309.1 L 994.7 353.1" fill="none" stroke="#E6EDF3" stroke-width="19.0" stroke-linecap="round" stroke-linejoin="round"/>
  <path d="M 589.3 507.5 L 589.3 407.4 L 617.3 407.4 C 645.3 407.4 645.3 461.5 617.3 461.5 L 589.3 461.5 M 674.4 437.5 L 674.4 481.5 C 674.4 497.5 684.4 507.5 698.5 507.5 C 712.5 507.5 722.5 497.5 722.5 481.5 M 722.5 437.5 L 722.5 507.5 M 758.5 437.5 L 802.6 437.5 L 758.5 507.5 L 802.6 507.5 M 838.6 437.5 L 882.6 437.5 L 838.6 507.5 L 882.6 507.5 M 918.7 407.4 L 918.7 479.5 C 918.7 498.5 927.7 507.5 942.7 507.5 M 970.4 472.5 L 1020.5 472.5 C 1020.5 452.5 1010.5 437.5 995.5 437.5 C 980.4 437.5 970.4 452.5 970.4 472.5 C 970.4 492.5 980.4 507.5 995.5 507.5 C 1004.5 507.5 1012.5 504.5 1018.5 497.5 M 1094.6 445.5 C 1088.6 439.5 1082.5 437.5 1074.5 437.5 C 1064.5 437.5 1056.5 443.5 1056.5 453.5 C 1056.5 473.5 1096.6 467.5 1096.6 489.5 C 1096.6 501.5 1086.5 507.5 1074.5 507.5 C 1066.5 507.5 1058.5 503.5 1054.5 497.5" fill="none" stroke="#E6EDF3" stroke-width="19.0" stroke-linecap="round" stroke-linejoin="round"/></g>
</svg>
