<svg xmlns="http://www.w3.org/2000/svg" width="1280" height="720" viewBox="0 0 1280 720">
  <g transform="translate(45.0,0.0)">
  <defs><linearGradient id="cbRail" x1="0" y1="0" x2="0" y2="1"><stop offset="0%" stop-color="#00d4ff"/><stop offset="100%" stop-color="#a78bfa"/></linearGradient></defs><rect x="70" y="168" width="16" height="384" rx="8.0" fill="url(#cbRail)"/>
  <g transform="translate(187,180) scale(0.70312)"><path d="M99.44146685472498 406.0V106.0H154.0253878702398L269.11706629055004 279.9069111424542H243.30606488011284L357.9746121297602 106.0H412.5585331452751V406.0H337.6643159379407V231.24682651622L349.5119887165022 234.63187588152326L280.54160789844855 338.2990126939351H231.45839210155148L162.9111424541608 234.63187588152326L174.75881523272216 231.24682651622V406.0Z" fill="#6A4C93" stroke="none"/></g>
  <path d="M593.772 299.49 606.652 267.014H613.184L625.926 299.49H618.29L608.538 272.534H611.16L601.27 299.49ZM601.086 293.60200000000003V287.714H618.796V293.60200000000003Z" fill="#00d4ff" stroke="none"/>
  <path d="M635.264 287.668V282.056H642.256Q643.59 282.056 644.694 281.504Q645.798 280.952 646.442 279.894Q647.086 278.836 647.086 277.318Q647.086 275.846 646.442 274.788Q645.798 273.73 644.694 273.178Q643.59 272.62600000000003 642.256 272.62600000000003H635.264V267.014H643.314Q646.396 267.014 648.88 268.256Q651.364 269.498 652.813 271.821Q654.262 274.144 654.262 277.318Q654.262 280.492 652.813 282.81500000000005Q651.364 285.13800000000003 648.88 286.403Q646.396 287.668 643.314 287.668ZM629.744 299.49V267.014H636.966V299.49Z" fill="#00d4ff" stroke="none"/>
  <path d="M664.152 287.668V282.056H671.144Q672.4780000000001 282.056 673.5820000000001 281.504Q674.686 280.952 675.33 279.894Q675.974 278.836 675.974 277.318Q675.974 275.846 675.33 274.788Q674.686 273.73 673.5820000000001 273.178Q672.4780000000001 272.62600000000003 671.144 272.62600000000003H664.152V267.014H672.202Q675.284 267.014 677.768 268.256Q680.2520000000001 269.498 681.701 271.821Q683.15 274.144 683.15 277.318Q683.15 280.492 681.701 282.81500000000005Q680.2520000000001 285.13800000000003 677.768 286.403Q675.284 287.668 672.202 287.668ZM658.6320000000001 299.49V267.014H665.854V299.49Z" fill="#00d4ff" stroke="none"/>
  <path d="M614.658 423.57V406.45799999999997H636.358Q644.294 406.45799999999997 650.246 403.296Q656.198 400.134 659.422 394.058Q662.646 387.98199999999997 662.646 379.674Q662.646 371.366 659.3599999999999 365.414Q656.074 359.462 650.184 356.238Q644.294 353.014 636.358 353.014H614.038V336.026H636.606Q646.526 336.026 654.896 339.188Q663.266 342.35 669.528 348.24Q675.79 354.13 679.2 362.128Q682.61 370.126 682.61 379.798Q682.61 389.346 679.2 397.406Q675.79 405.466 669.5899999999999 411.294Q663.39 417.122 655.02 420.346Q646.65 423.57 636.854 423.57ZM601.514 423.57V336.026H620.982V423.57Z" fill="#E6EDF3" stroke="none"/>
  <path d="M718.446 424.81Q710.1379999999999 424.81 703.6279999999999 420.71799999999996Q697.1179999999999 416.626 693.336 409.558Q689.554 402.49 689.554 393.438Q689.554 384.38599999999997 693.336 377.318Q697.1179999999999 370.25 703.6279999999999 366.158Q710.1379999999999 362.066 718.446 362.066Q724.5219999999999 362.066 729.42 364.422Q734.318 366.778 737.418 370.932Q740.518 375.086 740.89 380.418V406.45799999999997Q740.518 411.79 737.48 415.944Q734.442 420.098 729.482 422.454Q724.5219999999999 424.81 718.446 424.81ZM722.29 407.698Q728.366 407.698 732.086 403.668Q735.8059999999999 399.638 735.8059999999999 393.438Q735.8059999999999 389.222 734.132 385.998Q732.458 382.774 729.42 380.976Q726.382 379.178 722.414 379.178Q718.446 379.178 715.408 380.976Q712.37 382.774 710.572 385.998Q708.774 389.222 708.774 393.438Q708.774 397.53 710.51 400.754Q712.246 403.978 715.346 405.83799999999997Q718.446 407.698 722.29 407.698ZM735.062 423.57V407.326L737.914 392.694L735.062 378.062V363.306H753.662V423.57Z" fill="#E6EDF3" stroke="none"/>
  <path d="M767.054 423.57V363.306H786.026V423.57ZM776.602 354.998Q772.1379999999999 354.998 769.2239999999999 351.96000000000004Q766.31 348.922 766.31 344.582Q766.31 340.118 769.2239999999999 337.142Q772.1379999999999 334.166 776.602 334.166Q781.0659999999999 334.166 783.9179999999999 337.142Q786.77 340.118 786.77 344.582Q786.77 348.922 783.9179999999999 351.96000000000004Q781.0659999999999 354.998 776.602 354.998Z" fill="#E6EDF3" stroke="none"/>
  <path d="M795.946 450.602Q789.374 450.602 784.7860000000001 448.432Q780.198 446.262 776.726 442.294L788.506 430.514Q789.87 432.126 791.296 432.808Q792.722 433.49 794.582 433.49Q797.31 433.49 799.108 431.87800000000004Q800.906 430.266 800.906 426.918V363.306H819.8779999999999V426.67Q819.8779999999999 433.986 816.778 439.318Q813.678 444.65 808.284 447.626Q802.89 450.602 795.946 450.602ZM810.578 354.998Q806.114 354.998 803.2 351.96000000000004Q800.286 348.922 800.286 344.582Q800.286 340.118 803.2 337.142Q806.114 334.166 810.578 334.166Q815.042 334.166 817.894 337.142Q820.746 340.118 820.746 344.582Q820.746 348.922 817.894 351.96000000000004Q815.042 354.998 810.578 354.998Z" fill="#E6EDF3" stroke="none"/>
  <path d="M833.27 423.57V363.306H852.242V423.57ZM842.818 354.998Q838.3539999999999 354.998 835.4399999999999 351.96000000000004Q832.526 348.922 832.526 344.582Q832.526 340.118 835.4399999999999 337.142Q838.3539999999999 334.166 842.818 334.166Q847.2819999999999 334.166 850.134 337.142Q852.986 340.118 852.986 344.582Q852.986 348.922 850.134 351.96000000000004Q847.2819999999999 354.998 842.818 354.998Z" fill="#E6EDF3" stroke="none"/>
  <path d="M887.582 425.058Q882.25 425.058 877.104 423.69399999999996Q871.958 422.33 867.556 419.788Q863.154 417.246 860.054 413.89799999999997L870.842 402.986Q873.818 406.21 877.91 408.008Q882.002 409.806 886.838 409.806Q890.186 409.806 891.984 408.81399999999996Q893.782 407.822 893.782 406.086Q893.782 403.854 891.6120000000001 402.676Q889.442 401.498 886.094 400.568Q882.746 399.638 879.0260000000001 398.522Q875.306 397.406 871.9580000000001 395.422Q868.61 393.438 866.502 389.904Q864.394 386.37 864.394 380.914Q864.394 375.086 867.37 370.808Q870.346 366.53 875.802 364.04999999999995Q881.258 361.57 888.574 361.57Q896.262 361.57 902.7719999999999 364.236Q909.282 366.902 913.374 372.11L902.586 383.022Q899.734 379.674 896.2 378.30999999999995Q892.6659999999999 376.94599999999997 889.318 376.94599999999997Q886.0939999999999 376.94599999999997 884.482 377.876Q882.87 378.806 882.87 380.542Q882.87 382.402 884.9780000000001 383.51800000000003Q887.086 384.634 890.434 385.502Q893.782 386.37 897.502 387.61Q901.222 388.85 904.5699999999999 390.95799999999997Q907.918 393.066 910.0260000000001 396.6Q912.134 400.134 912.134 405.83799999999997Q912.134 414.642 905.5 419.85Q898.866 425.058 887.582 425.058Z" fill="#E6EDF3" stroke="none"/>
  <path d="M962.23 423.57V389.222Q962.23 384.51 959.316 381.596Q956.402 378.682 951.938 378.682Q948.838 378.682 946.482 379.98400000000004Q944.126 381.286 942.762 383.704Q941.398 386.122 941.398 389.222L934.082 385.626Q934.082 378.558 937.058 373.226Q940.034 367.894 945.366 364.98Q950.698 362.066 957.642 362.066Q964.71 362.066 970.042 364.98Q975.374 367.894 978.288 373.03999999999996Q981.202 378.186 981.202 385.006V423.57ZM922.426 423.57V333.546H941.398V423.57Z" fill="#E6EDF3" stroke="none"/>
  <path d="M1022.37 424.93399999999997Q1013.07 424.93399999999997 1005.568 420.78Q998.066 416.626 993.726 409.43399999999997Q989.386 402.242 989.386 393.31399999999996Q989.386 384.38599999999997 993.726 377.318Q998.066 370.25 1005.5060000000001 366.096Q1012.946 361.942 1022.37 361.942Q1031.794 361.942 1039.234 366.034Q1046.674 370.126 1051.0140000000001 377.256Q1055.354 384.38599999999997 1055.354 393.31399999999996Q1055.354 402.242 1051.0140000000001 409.43399999999997Q1046.674 416.626 1039.234 420.78Q1031.794 424.93399999999997 1022.37 424.93399999999997ZM1022.37 407.698Q1026.462 407.698 1029.562 405.9Q1032.662 404.102 1034.336 400.816Q1036.01 397.53 1036.01 393.31399999999996Q1036.01 389.098 1034.274 385.93600000000004Q1032.538 382.774 1029.5 380.976Q1026.462 379.178 1022.37 379.178Q1018.402 379.178 1015.302 380.976Q1012.202 382.774 1010.466 385.998Q1008.73 389.222 1008.73 393.438Q1008.73 397.53 1010.466 400.816Q1012.202 404.102 1015.302 405.9Q1018.402 407.698 1022.37 407.698Z" fill="#E6EDF3" stroke="none"/>
  <path d="M1091.5620000000001 424.93399999999997Q1083.2540000000001 424.93399999999997 1076.8680000000002 421.524Q1070.4820000000002 418.114 1066.8860000000002 412.1Q1063.2900000000002 406.086 1063.2900000000002 398.274V363.306H1082.2620000000002V398.026Q1082.2620000000002 401.126 1083.3160000000003 403.35799999999995Q1084.3700000000001 405.59 1086.478 406.83Q1088.586 408.07 1091.5620000000001 408.07Q1095.778 408.07 1098.258 405.404Q1100.738 402.738 1100.738 398.026V363.306H1119.71V398.15Q1119.71 406.086 1116.114 412.1Q1112.518 418.114 1106.194 421.524Q1099.8700000000001 424.93399999999997 1091.5620000000001 424.93399999999997Z" fill="#E6EDF3" stroke="none"/></g>
</svg>
