<svg xmlns="http://www.w3.org/2000/svg" xmlns:xlink="http://www.w3.org/1999/xlink" width="1280" height="720" viewBox="0 0 1280 720">
<defs><path id="fgoodtoolapps" d="M 104 28 H 1176 A 76 76 0 0 1 1252 104 V 598 A 76 76 0 0 1 1176 674 H 104 A 76 76 0 0 1 28 598 V 104 A 76 76 0 0 1 104 28 Z"/><clipPath id="cpgoodtoolapps"><use href="#fgoodtoolapps" xlink:href="#fgoodtoolapps"/></clipPath><pattern id="htgoodtoolapps" width="34.0" height="34.0" patternUnits="userSpaceOnUse" patternTransform="rotate(45)"><circle cx="17.00" cy="17.00" r="7.0" fill="#0C5193"/></pattern><linearGradient id="hggoodtoolapps" x1="0" y1="0" x2="1" y2="1"><stop offset="0.18" stop-color="#000000"/><stop offset="0.62" stop-color="#8A8A8A"/><stop offset="1" stop-color="#FFFFFF"/></linearGradient><mask id="hmgoodtoolapps"><rect x="0" y="0" width="1280" height="720" fill="url(#hggoodtoolapps)"/></mask></defs><use href="#fgoodtoolapps" xlink:href="#fgoodtoolapps" fill="#151019" transform="translate(0,18)"/><use href="#fgoodtoolapps" xlink:href="#fgoodtoolapps" fill="#1C79D2"/><g clip-path="url(#cpgoodtoolapps)"><rect width="1280" height="720" fill="url(#htgoodtoolapps)" mask="url(#hmgoodtoolapps)"/></g><use href="#fgoodtoolapps" xlink:href="#fgoodtoolapps" fill="none" stroke="#151019" stroke-width="26" stroke-linejoin="round"/><g transform="translate(640.0,351.0)"><g transform="scale(0.92838) translate(-256.00,-256.00)"><ns0:rect xmlns:ns0="http://www.w3.org/2000/svg" x="68" y="186" width="376" height="228" rx="42" fill="none" stroke="#151019" stroke-width="86.17" stroke-linecap="round" stroke-linejoin="round" /><ns0:path xmlns:ns0="http://www.w3.org/2000/svg" d="M 180 186 L 180 144 C 180 118 200 98 226 98 L 286 98 C 312 98 332 118 332 144 L 332 186" fill="none" stroke="#151019" stroke-width="79.60" stroke-linecap="round" stroke-linejoin="round" /><ns0:path xmlns:ns0="http://www.w3.org/2000/svg" d="M 68 282 L 444 282" fill="none" stroke="#151019" stroke-width="79.60" stroke-linecap="round" stroke-linejoin="round" /><ns0:rect xmlns:ns0="http://www.w3.org/2000/svg" x="68" y="186" width="376" height="228" rx="42" fill="none" stroke="#FFF4E0" stroke-width="36.62" stroke-linecap="round" stroke-linejoin="round" /><ns0:path xmlns:ns0="http://www.w3.org/2000/svg" d="M 180 186 L 180 144 C 180 118 200 98 226 98 L 286 98 C 312 98 332 118 332 144 L 332 186" fill="none" stroke="#FFF4E0" stroke-width="30.05" stroke-linecap="round" stroke-linejoin="round" /><ns0:path xmlns:ns0="http://www.w3.org/2000/svg" d="M 68 282 L 444 282" fill="none" stroke="#FFF4E0" stroke-width="30.05" stroke-linecap="round" stroke-linejoin="round" /></g></g>
</svg>
